<?xml version="1.0" standalone="no"?>
<!DOCTYPE svg PUBLIC "-//W3C//DTD SVG 20010904//EN"
 "http://www.w3.org/TR/2001/REC-SVG-20010904/DTD/svg10.dtd">
<svg version="1.0" xmlns="http://www.w3.org/2000/svg"
 width="564.000000pt" height="442.000000pt" viewBox="0 0 564.000000 442.000000"
 preserveAspectRatio="xMidYMid meet">

<g transform="translate(0.000000,442.000000) scale(0.100000,-0.100000)"
fill="#000000" stroke="none">
<path d="M2715 3373 c-91 -12 -236 -91 -355 -192 -30 -26 -109 -90 -175 -142
-128 -102 -187 -154 -385 -340 -291 -272 -435 -369 -617 -418 -130 -34 -423
-80 -593 -92 -148 -11 -455 -7 -547 7 -61 9 -56 -13 4 -23 27 -4 172 -8 323
-8 210 0 307 4 410 18 116 16 380 66 432 83 10 3 21 -3 28 -15 8 -16 6 -27
-10 -53 -39 -64 -17 -122 52 -137 44 -10 160 8 237 38 30 11 57 18 62 16 4 -3
7 -31 6 -62 -1 -83 18 -111 131 -192 278 -199 504 -316 775 -401 37 -12 38
-12 32 -53 -19 -133 137 -212 415 -211 290 1 486 64 1060 339 334 160 397 189
550 250 165 66 351 121 484 142 119 18 341 13 426 -10 56 -16 72 -15 54 3 -34
34 -319 52 -474 30 -231 -33 -505 -132 -925 -335 -429 -208 -544 -258 -725
-319 -172 -57 -289 -77 -454 -78 -206 0 -340 42 -381 122 -16 32 -13 84 6 96
5 3 46 -3 92 -13 66 -14 126 -18 302 -18 205 1 228 3 340 29 219 51 417 143
581 272 156 121 221 229 181 301 -25 45 -118 149 -156 176 -14 9 -23 18 -20
20 2 2 45 1 95 -1 l91 -4 23 -56 c31 -76 82 -161 117 -193 82 -77 183 -46 183
55 0 79 -74 151 -191 186 -35 11 -71 20 -79 20 -34 1 -41 15 -25 46 8 16 15
38 15 49 -1 36 -47 133 -114 239 -37 58 -78 132 -91 165 -62 152 -123 258
-197 343 -26 29 -72 86 -103 125 -103 133 -191 159 -356 105 -176 -58 -216
-54 -350 32 -83 53 -126 67 -184 59z m156 -853 c112 -82 119 -83 240 -40 94
33 136 37 182 15 43 -20 124 -91 115 -100 -4 -4 -49 7 -100 25 -109 37 -150
40 -247 15 l-71 -19 -103 35 c-94 31 -111 34 -222 34 -138 -1 -226 -22 -310
-76 -33 -21 -74 -37 -118 -44 -38 -7 -65 -9 -60 -4 21 21 411 159 503 179 69
14 158 5 191 -20z m-100 -60 c29 -6 81 -21 115 -35 73 -29 124 -31 201 -9 32
9 74 14 98 12 60 -7 303 -87 347 -115 21 -13 42 -23 47 -23 5 0 15 -8 22 -17
13 -15 11 -16 -11 -10 -14 4 -68 10 -120 13 -100 5 -159 14 -327 45 -198 36
-341 51 -558 58 l-220 7 60 28 c100 47 240 66 346 46z m39 -115 c126 -14 372
-53 378 -60 2 -2 -13 -7 -34 -11 -67 -12 -352 4 -464 27 -97 20 -115 20 -254
10 -82 -6 -151 -9 -154 -6 -11 11 32 44 62 48 78 10 353 5 466 -8z m-561 -27
c-6 -13 -13 -24 -14 -25 -4 -6 -348 -54 -352 -50 -12 13 177 65 327 90 52 9
52 9 39 -15z m-902 -133 c42 -17 86 -26 130 -28 38 -1 68 -7 70 -13 5 -15
-127 -56 -202 -62 -70 -5 -102 7 -111 42 -6 26 20 86 38 86 6 0 40 -11 75 -25z
m2878 -26 c84 -32 145 -98 145 -158 0 -74 -75 -96 -142 -41 -32 27 -128 190
-128 218 0 14 61 4 125 -19z"/>
<path d="M4185 2829 c-31 -28 -35 -36 -35 -82 0 -56 16 -88 107 -214 30 -43
62 -93 71 -110 9 -18 20 -33 25 -33 22 0 218 104 254 135 81 69 110 189 58
240 -40 41 -139 32 -194 -18 -16 -15 -25 -18 -28 -10 -11 30 -51 80 -82 100
-25 17 -48 23 -87 23 -45 0 -59 -5 -89 -31z"/>
<path d="M4691 2428 c-20 -23 -58 -64 -86 -91 -59 -57 -61 -52 69 -118 105
-52 177 -54 197 -3 12 34 -4 70 -40 89 l-31 15 20 33 c25 41 25 58 -1 91 -15
19 -29 26 -56 26 -30 0 -42 -7 -72 -42z"/>
</g>
</svg>
